# xmcd CD database file
#
# Track frame offsets:
#	150
#	15101
#	30795
#	51888
#	67037
#	81306
#	94370
#	109968
#	126003
#	142292
#	159149
#	175019
#	191923
#	211229
#	229372
#
# Disc length: 3318 seconds
#
# Revision: 0
# Processed by: cddbd v1.5.2PL0 Copyright (c) Steve Scherf et al.
# Submitted via: ACXtractor (MTCDDB.DLL V2003.12.21)
#
DISCID=ca0cf40f
DTITLE=Miti2006 - รวมฮิตทอม ดันดี
DYEAR=2007
DGENRE=Country
TTITLE0=อย่างนี้ต้องตีเข้า
TTITLE1=สาวมอญแม่เหมย
TTITLE2=นกเขาใจง่าย
TTITLE3=ทำบุญร่วมชาติ
TTITLE4=พ่อแก่แม่เฒ่า
TTITLE5=ความหาย
TTITLE6=ผู้หญิงหน้าเงิน
TTITLE7=สาวฮิปปี้
TTITLE8=ดุ๊'ุ่ย
TTITLE9=ยับเยิน
TTITLE10=บ่อสร้างกางจ้อง
TTITLE11=มยุรา
TTITLE12=ขันหมากคนจน
TTITLE13=นางฟ้าหน้าราม
TTITLE14=อ้อล้อ
EXTD=ID3G:   2 YEAR: 2007
EXTT0=
EXTT1=
EXTT2=
EXTT3=
EXTT4=
EXTT5=
EXTT6=
EXTT7=
EXTT8=
EXTT9=
EXTT10=
EXTT11=
EXTT12=
EXTT13=
EXTT14=
PLAYORDER=
